# xmcd
#
# Track frame offsets: 
#        150
#        24376
#        50997
#        81352
#        108504
#        138727
#        161488
#        181973
#        219143
#        245496
#        275087
#
# Disc length: 3954 seconds
#
# Revision: 0
# Processed by: cddbd v1.5.2PL0 Copyright (c) Steve Scherf et al.
# Submitted via: ExactAudioCopy v0.99pb3
#
DISCID=a00f700b
DTITLE=Byther Smith - Blues On The Moon
DYEAR=2008
DGENRE=Blues
TTITLE0=Judge Of Honor
TTITLE1=If You Love Me
TTITLE2=Blues On The Moon
TTITLE3=Give Up My Life For You
TTITLE4=Hard Times
TTITLE5=Your Mama's Crazy
TTITLE6=If I Misused Someone
TTITLE7=Monticello
TTITLE8=So Mean To Me
TTITLE9=Rock Me Baby
TTITLE10=Don't Start Me Talkin'
EXTD=
EXTT0=
EXTT1=
EXTT2=
EXTT3=
EXTT4=
EXTT5=
EXTT6=
EXTT7=
EXTT8=
EXTT9=
EXTT10=
PLAYORDER=
